<?xml version="1.0" encoding="utf-8"?>
<!-- Generator: Adobe Illustrator 16.0.4, SVG Export Plug-In . SVG Version: 6.00 Build 0)  -->
<!DOCTYPE svg PUBLIC "-//W3C//DTD SVG 1.1//EN" "http://www.w3.org/Graphics/SVG/1.1/DTD/svg11.dtd">
<svg version="1.1" id="Layer_1" xmlns="http://www.w3.org/2000/svg" xmlns:xlink="http://www.w3.org/1999/xlink" x="0px" y="0px"
	 width="188px" height="188px" viewBox="0 0 188 188" enable-background="new 0 0 188 188" xml:space="preserve">
<circle fill="none" stroke="#162C52" stroke-width="2.1429" cx="94.119" cy="74.368" r="60"/>
<polyline fill="none" stroke="#162B53" stroke-width="2.1429" stroke-miterlimit="10" points="56.866,49.086 68.993,49.086 
	79.446,86.289 110.003,86.289 120.933,61.171 86.625,61.171 "/>
<path fill="none" stroke="#162B53" stroke-width="2.1429" stroke-miterlimit="10" d="M117.716,101.306
	c0,3.201-2.724,5.806-6.07,5.806s-6.07-2.604-6.07-5.806c0-3.2,2.724-5.804,6.07-5.804S117.716,98.105,117.716,101.306z"/>
<path fill="none" stroke="#162B53" stroke-width="2.1429" stroke-miterlimit="10" d="M83.538,101.306
	c0,3.201-2.724,5.806-6.07,5.806s-6.069-2.604-6.069-5.806c0-3.2,2.723-5.804,6.069-5.804S83.538,98.105,83.538,101.306z"/>
</svg>
